<?xml version="1.0" standalone="no"?> <!DOCTYPE svg PUBLIC "-//W3C//DTD SVG 1.0//EN" "http://www.w3.org/TR/2001/REC-SVG-20010904/DTD/svg10.dtd" > <svg xmlns="http://www.w3.org/2000/svg" width="100%" height="100%">
<defs >
<font id="futurastdcondensed" horiz-adv-x="788" ><font-face
    font-family="Futura Std Condensed"
    units-per-em="2048"
    panose-1="2 11 5 6 2 2 4 3 2 4"
    ascent="1690"
    descent="-358"
    alphabetic="0" />
<missing-glyph horiz-adv-x="1024" d="M0 0V1434H1024V0H0ZM512 809L860 1331H164L512 809ZM573 717L922 195V1239L573 717ZM164 102H860L512 625L164 102ZM102 1239V195L451 717L102 1239Z" />
<glyph unicode=" " glyph-name="space" horiz-adv-x="419" />
<glyph unicode="!" glyph-name="exclam" horiz-adv-x="516" d="M309 -16T258 -16T171 20T135 106Q135 157 171 193T258 229T345 193T381 106Q381 56 345 20ZM158 1544H362V371H158V1544Z" />
<glyph unicode="&quot;" glyph-name="quotedbl" horiz-adv-x="512" d="M59 1081L35 1544H211L186 1081H59ZM328 1081L303 1544H479L455 1081H328Z" />
<glyph unicode="#" glyph-name="numbersign" horiz-adv-x="841" d="M-25 0L139 528H-80L-45 649H176L254 903H31L66 1024H289L451 1544H563L403 1024H584L741 1544H856L696 1024H924L889 903H659L582 649H811L780 528H545L383 0H270L432 528H254L88 0H-25ZM291
649H469L547 903H367L291 649Z" />
<glyph unicode="$" glyph-name="dollar" horiz-adv-x="841" d="M373 1677H465V1544Q580 1536 657 1479T764 1317L606 1223Q594 1289 545 1330T426 1372Q338 1372 298 1317T258 1171Q258 1143 261 1119T274 1073T291 1035T317 1000T345 971T381 942T417 917T460
889T504 862Q560 827 592 805T660 751T716 692T752 625T775 539T782 432Q782 35 465 0V-137H373V0Q252 10 181 65T72 233L242 315Q280 172 416 172Q507 172 546 236T586 403Q586 435 582 462T572 510T552 549T529 581T497 610T462 635T420 663T375 692Q305 735
263 765T177 838T112 923T75 1026T61 1161Q61 1318 140 1424T373 1544V1677Z" />
<glyph unicode="%" glyph-name="percent" horiz-adv-x="1132" d="M256 1563T305 1563T391 1547T452 1501T490 1437T512 1357T521 1276T524 1196Q524 1159 523 1129T516 1060T502 990T477 928T438 876T381 842T305 829T229 842T173 875T134 927T108 989T94 1059T88
1129T86 1196Q86 1241 88 1276T97 1357T119 1436T158 1500T218 1547ZM290 952T305 952T332 958T352 977T367 1003T377 1036T383 1072T386 1110T387 1143T387 1174T387 1196T387 1217T387 1247T386 1281T383 1319T377 1354T367 1388T353 1415T332 1434T305 1440T278
1434T258 1415T243 1389T233 1355T227 1319T224 1281T223 1248T223 1218T223 1196T223 1174T223 1144T224 1110T227 1072T233 1037T243 1003T257 977T278 958ZM776 715T825 715T911 699T972 653T1010 589T1032 509T1041 428T1044 348Q1044 294 1041 253T1025 157T990
68T926 7T825 -18T725 7T661 67T625 156T609 252T606 348Q606 392 608 428T618 509T640 588T678 652T738 699ZM840 592T825 592T798 586T778 567T763 541T753 508T747 473T744 435T743 402T743 372T743 350T743 328T743 297T744 263T747 225T753 190T763 156T777
129T798 110T825 104T852 110T873 129T887 155T897 189T903 225T906 263T907 297T908 328T907 350T907 371T908 401T907 435T904 472T898 507T888 541T873 567T853 586ZM885 1544H1012L246 0H119L885 1544Z" />
<glyph unicode="&amp;" glyph-name="ampersand" horiz-adv-x="1011" d="M418 903Q495 983 519 1018Q565 1087 565 1157Q565 1211 536 1245T453 1280Q402 1280 367 1238T332 1145Q332 1120 336 1095T352 1042T371 997T395 948T418 903ZM578 262L365 618Q306 557
277 502T248 373Q248 287 296 222T422 156Q514 156 578 262ZM737 0L664 121Q616 54 546 17T397 -20Q301 -20 221 34T96 177T51 365Q51 478 109 579T266 778Q143 967 143 1141Q143 1269 225 1352T438 1436Q570 1436 651 1362T733 1157Q733 1096 715 1039T659 929T589
838T504 750L707 414L834 594L965 487L801 258L965 0H737Z" />
<glyph unicode="&apos;" glyph-name="quotesingle" horiz-adv-x="512" d="M193 1081L168 1544H344L319 1081H193Z" />
<glyph unicode="(" glyph-name="parenleft" horiz-adv-x="565" d="M266 1565L457 1518Q279 1054 279 692Q279 274 457 -182L266 -231Q84 218 84 680Q84 1145 266 1565Z" />
<glyph unicode=")" glyph-name="parenright" horiz-adv-x="565" d="M481 680Q481 214 299 -231L109 -182Q287 278 287 692Q287 1049 109 1518L299 1565Q481 1145 481 680Z" />
<glyph unicode="*" glyph-name="asterisk" horiz-adv-x="731" d="M322 1544H401V1272L629 1415L672 1346L434 1210L672 1079L629 1010L401 1147L410 883H322L330 1153L106 1010L59 1079L291 1210L59 1333L98 1407L330 1272L322 1544Z" />
<glyph unicode="+" glyph-name="plus" horiz-adv-x="1024" d="M440 596V1038H584V596H936V453H584V4H440V453H90V596H440Z" />
<glyph unicode="," glyph-name="comma" horiz-adv-x="419" d="M156 217L322 166L123 -377L18 -348L156 217Z" />
<glyph unicode="-" glyph-name="hyphen" horiz-adv-x="495" d="M66 608H430V453H66V608Z" />
<glyph unicode="." glyph-name="period" horiz-adv-x="419" d="M262 -16T211 -16T124 20T88 109Q88 158 124 193T211 229T298 194T334 109Q334 57 298 21Z" />
<glyph unicode="/" glyph-name="slash" horiz-adv-x="833" d="M733 1700H895L106 -211H-59L733 1700Z" />
<glyph unicode="0" glyph-name="zero" horiz-adv-x="841" d="M422 1563Q727 1563 766 1057Q772 973 772 772Q772 543 762 443Q714 -18 422 -18Q117 -18 78 487Q72 571 72 772Q72 1002 82 1102Q130 1563 422 1563ZM571 772Q572 865 571 930T565 1071T550 1197T524
1291T482 1356T422 1378T362 1357T320 1291T294 1197T279 1071T273 930T272 772Q271 680 272 615T278 474T293 348T320 253T362 188T422 166T482 187T524 253T550 347T564 473T570 614T571 772Z" />
<glyph unicode="1" glyph-name="one" horiz-adv-x="841" d="M170 1544H522V0H322V1366H170V1544Z" />
<glyph unicode="2" glyph-name="two" horiz-adv-x="841" d="M96 1042V1098Q96 1182 101 1241T126 1366T180 1471T277 1537T426 1563Q610 1563 690 1467T770 1182Q770 928 504 428L373 178H756V0H76L451 793Q503 911 532 1005T561 1194Q561 1269 529 1323T424 1378Q399
1378 379 1368T347 1342T325 1301T312 1255T306 1204T304 1157T304 1114T305 1083V1042H96Z" />
<glyph unicode="3" glyph-name="three" horiz-adv-x="841" d="M373 711H313V895H338Q465 895 507 945T549 1130Q549 1160 549 1178T545 1230T534 1286T514 1331T480 1366T430 1378Q309 1378 309 1178V1130H113V1145Q113 1223 118 1278T143 1391T195 1484T285 1541T424
1563Q499 1563 556 1543T648 1487T706 1400T736 1291T745 1163Q745 1111 743 1074T731 988T704 906T653 843T573 799V795Q622 783 658 756T714 695T745 616T760 530T764 438Q764 339 748 261T693 118T583 18T410 -18Q239 -18 162 73T84 340V387H281V338Q281 265
312 216T410 166Q440 166 463 177T502 204T528 248T544 297T551 353T554 406T555 455Q555 511 548 552T523 633T467 693T373 711Z" />
<glyph unicode="4" glyph-name="four" horiz-adv-x="841" d="M676 1544V575H774V424H676V0H475V424H59V600L475 1544H676ZM475 575V1231H471L221 575H475Z" />
<glyph unicode="5" glyph-name="five" horiz-adv-x="841" d="M248 1544H739V1366H406L356 977Q557 984 658 866T760 543Q760 454 747 376T701 224T621 98T497 14T326 -18Q222 -18 86 45L139 227Q143 225 164 214T190 201T212 190T238 180T262 173T290 168T319
166Q371 166 412 189T479 247T521 330T544 421T551 510Q551 651 486 732T283 813Q232 813 158 795L248 1544Z" />
<glyph unicode="6" glyph-name="six" horiz-adv-x="841" d="M401 1544H623L322 885L326 881Q402 950 483 950Q536 950 578 933T649 888T697 818T728 736T745 643T752 552T754 465Q754 408 752 363T741 266T718 175T679 98T620 36T535 -3T422 -18T309 -1T224 43T164
113T124 198T102 297T91 399T88 504Q88 618 103 726T139 917T201 1105T275 1282T367 1474Q390 1520 401 1544ZM545 463Q545 466 545 471Q545 501 545 519T543 572T536 629T523 680T502 725T469 754T424 766Q411 766 407 766T386 761T361 746T338 714T317 661T303
580T297 465Q297 166 424 166Q545 166 545 463Z" />
<glyph unicode="7" glyph-name="seven" horiz-adv-x="841" d="M78 1544H768L299 0H78L508 1366H78V1544Z" />
<glyph unicode="8" glyph-name="eight" horiz-adv-x="841" d="M420 166Q547 166 547 424Q547 577 523 643Q491 727 420 727Q390 727 368 713T333 672T312 619T301 553T298 492T297 436Q297 428 297 424Q297 166 420 166ZM270 836V840Q100 894 100 1184Q100 1251
108 1305T139 1409T195 1491T283 1543T408 1563Q593 1563 667 1471T741 1184Q741 894 573 838V836Q631 821 670 782T726 686T750 578T756 463Q756 398 752 345T735 234T698 133T639 55T548 1T422 -18Q342 -18 282 7T185 74T126 176T96 298T88 434Q88 483 89 514T95
594T112 676T143 744T195 802T270 836ZM422 928Q457 928 481 953T516 1020T531 1095T535 1163Q535 1378 422 1378Q307 1378 307 1163Q307 1129 311 1095T325 1020T361 954T422 928Z" />
<glyph unicode="9" glyph-name="nine" horiz-adv-x="841" d="M432 0H209L516 645L512 649Q478 616 442 602T356 588Q298 588 254 607T181 663T134 742T106 838T94 938T90 1036Q90 1097 92 1141T101 1244T122 1345T159 1430T218 1501T304 1545T420 1563T536 1546T622
1502T682 1432T720 1347T742 1248T752 1144T754 1038Q754 915 739 808T691 594T620 399T522 184L432 0ZM420 772Q446 772 466 784T500 812T522 858T535 908T542 966T545 1018T545 1065Q545 1075 545 1079Q545 1378 420 1378Q398 1378 380 1369T349 1341T328 1304T314
1255T305 1205T301 1152T299 1107T299 1067Q299 1037 299 1022T301 970T308 913T321 861T342 814T375 785T420 772Z" />
<glyph unicode=":" glyph-name="colon" horiz-adv-x="419" d="M262 -16T211 -16T124 20T88 109Q88 158 124 193T211 229T298 194T334 109Q334 57 298 21ZM262 803T211 803T124 839T88 928Q88 977 124 1013T211 1049T298 1013T334 928Q334 876 298 840Z" />
<glyph unicode=";" glyph-name="semicolon" horiz-adv-x="419" d="M158 217L324 166L127 -377L20 -348L158 217ZM262 803T211 803T124 839T88 928Q88 977 124 1013T211 1049T298 1013T334 928Q334 876 298 840Z" />
<glyph unicode="&lt;" glyph-name="less" horiz-adv-x="1024" d="M90 455V586L936 1061V911L250 520L936 129V-20L90 455Z" />
<glyph unicode="=" glyph-name="equal" horiz-adv-x="1024" d="M936 786V643H90V786H936ZM936 397V254H90V397H936Z" />
<glyph unicode="&gt;" glyph-name="greater" horiz-adv-x="1024" d="M936 586V455L90 -20V129L776 520L90 911V1061L936 586Z" />
<glyph unicode="?" glyph-name="question" horiz-adv-x="698" d="M432 365H252V829L299 827Q330 827 354 835T395 854T422 887T438 927T447 975T450 1025T451 1079Q451 1084 451 1108T452 1148T451 1192T447 1239T440 1283T427 1325T409 1358T384 1381T350 1389T317
1383T293 1367T278 1342T268 1313T264 1280T262 1247T262 1215Q262 1205 262 1200V1163H70V1188Q70 1238 72 1273T81 1351T99 1422T130 1480T179 1526T248 1554T342 1565Q402 1565 449 1551T528 1516T582 1458T617 1386T637 1298T645 1204T647 1102Q647 1057 647
1030T642 954T630 874T606 804T568 744T511 706T432 692V365ZM391 -16T340 -16T253 20T217 106Q217 157 253 193T340 229T427 193T463 106Q463 56 427 20Z" />
<glyph unicode="@" glyph-name="at" horiz-adv-x="1638" d="M684 432Q743 432 798 472T892 575T962 712T1007 854T1022 971Q1022 1033 985 1072T883 1112Q805 1112 736 1063T624 939T555 780T530 623Q530 541 569 487T684 432ZM1116 1106L1147 1204H1288L1075
571Q1049 498 1049 465Q1049 439 1066 421T1110 403Q1148 403 1192 424T1282 490T1364 593T1424 735T1448 911Q1448 1033 1400 1134T1268 1300T1078 1402T852 1438Q663 1438 511 1348T273 1103T188 764Q188 582 276 431T518 193T856 106Q1022 106 1169 175T1405
371H1534Q1435 191 1250 86T856 -20Q688 -20 539 43T283 214T115 469T57 780Q57 940 121 1085T292 1336T548 1503T858 1565Q999 1565 1130 1516T1361 1380T1519 1169T1579 903Q1579 828 1556 744T1488 581T1384 437T1245 334T1081 295Q1022 295 971 322T901 403Q854
355 787 327T653 299Q523 299 443 390T362 612Q362 696 386 785T456 955T564 1102T708 1206T881 1245Q957 1245 1021 1209T1116 1106Z" />
<glyph unicode="A" glyph-name="A" horiz-adv-x="847" d="M344 1544H506L838 0H631L573 301H266L209 0H8L344 1544ZM543 461L502 684L424 1245H420L297 461H543Z" />
<glyph unicode="B" glyph-name="B" horiz-adv-x="856" d="M319 700V174Q447 168 495 230T543 428Q543 497 535 543T503 628T434 684T319 700ZM371 0H125V1544H381Q483 1544 553 1517T663 1435T720 1306T737 1130Q737 1067 730 1018T702 920T642 837T543 788V784Q666
745 713 655T760 422Q760 204 670 102T371 0ZM537 1139Q537 1187 528 1226T499 1300T442 1352T354 1370H319V864Q388 861 433 879T500 938T529 1024T537 1139Z" />
<glyph unicode="C" glyph-name="C" horiz-adv-x="755" d="M723 1520V1333Q647 1372 592 1372Q546 1372 507 1357T440 1318T390 1256T353 1182T329 1095T314 1006T307 916T304 834T303 762Q303 708 304 664T313 556T331 443T365 341T418 252T495 195T600 172Q665
172 723 203V23Q657 -20 559 -20Q472 -20 402 6T283 75T198 181T141 309T107 454T90 603T86 748T89 891T103 1044T134 1200T188 1339T270 1457T387 1535T545 1565Q645 1565 723 1520Z" />
<glyph unicode="D" glyph-name="D" horiz-adv-x="954" d="M125 1544H354Q504 1544 580 1517Q743 1459 812 1241Q870 1057 870 745Q870 312 744 147Q660 38 491 12Q413 0 266 0H125V1544ZM653 745Q653 759 653 787Q653 842 653 872T651 959T643 1050T626 1135T600
1215T559 1280T503 1333T427 1362T330 1370V174Q551 167 617 355Q653 454 653 668Q653 624 653 745Z" />
<glyph unicode="E" glyph-name="E" horiz-adv-x="710" d="M125 1544H676V1366H330V881H639V702H330V178H676V0H125V1544Z" />
<glyph unicode="F" glyph-name="F" horiz-adv-x="700" d="M125 1544H680V1366H330V881H645V702H330V0H125V1544Z" />
<glyph unicode="G" glyph-name="G" horiz-adv-x="942" d="M487 815H864V791Q864 767 865 714Q868 458 846 334Q794 26 570 -14Q535 -20 496 -20Q419 -20 358 1T255 59T181 153T132 274T104 422T90 586T86 768Q86 847 87 909T94 1042T108 1167T132 1277T167 1375T217
1453T284 1514T370 1551T477 1565Q636 1565 724 1487T854 1249L659 1169Q650 1215 641 1245T612 1308T561 1356T483 1372Q452 1372 427 1362T384 1330T353 1281T330 1211T316 1125T308 1021T304 904T303 770Q303 615 313 503T340 327T381 228T429 182T483 172Q505
172 519 173T554 183T588 205T616 248T639 316T653 416T659 553V637H487V815Z" />
<glyph unicode="H" glyph-name="H" horiz-adv-x="968" d="M125 1544H330V942H639V1544H844V0H639V764H330V0H125V1544Z" />
<glyph unicode="I" glyph-name="I" horiz-adv-x="454" d="M330 1544V0H125V1544H330Z" />
<glyph unicode="J" glyph-name="J" horiz-adv-x="620" d="M496 1544V383Q496 332 494 292T483 208T462 132T425 70T371 21T294 -9T193 -20Q90 -20 16 20V229Q18 228 28 222T41 214T53 207T67 200T80 194T94 188T108 183T122 179T137 177T152 176Q191 176 218 189T260
221T281 272T290 329T291 393V1544H496Z" />
<glyph unicode="K" glyph-name="K" horiz-adv-x="868" d="M125 1544H334V803L623 1544H834L530 797L858 0H623L334 782V0H125V1544Z" />
<glyph unicode="L" glyph-name="L" horiz-adv-x="677" d="M125 1544H330V178H674V0H125V1544Z" />
<glyph unicode="M" glyph-name="M" horiz-adv-x="1148" d="M176 1544H352L571 430H575L582 494L643 864L776 1544H956L1100 0H899L862 575L850 862L846 1065H842L807 844L647 0H506L307 1065H303L244 0H49L176 1544Z" />
<glyph unicode="N" glyph-name="N" horiz-adv-x="966" d="M287 1186L299 1085L330 567V0H125V1544H322L682 371L686 375L637 993V1544H842V0H651L291 1190L287 1186Z" />
<glyph unicode="O" glyph-name="O" horiz-adv-x="974" d="M487 1565Q825 1565 878 1064Q889 955 889 772Q889 494 856 344Q777 -20 487 -20Q149 -20 97 483Q86 591 86 772Q86 1051 119 1201Q198 1565 487 1565ZM487 1372Q440 1372 406 1340T353 1257T322 1124T307
962T303 772T306 583T321 421T352 288T406 204T487 172Q527 172 557 193T607 255T640 348T660 471T669 613T672 772T670 931T660 1072T640 1196T607 1288T557 1351T487 1372Z" />
<glyph unicode="P" glyph-name="P" horiz-adv-x="794" d="M330 0H125V1544H371Q417 1544 449 1542T526 1532T603 1507T669 1460T724 1386T758 1278T772 1130Q772 891 669 783T330 684V0ZM358 1370H330V858Q456 849 505 913T555 1114Q555 1370 358 1370Z" />
<glyph unicode="Q" glyph-name="Q" horiz-adv-x="980" d="M936 -25L803 -119L694 43Q618 -20 487 -20Q149 -20 97 483Q86 591 86 772Q86 1051 119 1201Q198 1565 487 1565Q825 1565 878 1064Q889 955 889 772Q889 359 797 168L936 -25ZM487 1372Q440 1372 406
1340T353 1257T322 1124T307 962T303 772T306 583T321 421T352 288T406 204T487 172Q542 172 571 205L442 391L567 489L645 379H649Q672 600 672 772Q672 862 670 931T660 1072T640 1196T607 1288T557 1351T487 1372Z" />
<glyph unicode="R" glyph-name="R" horiz-adv-x="851" d="M125 0V1544H371Q413 1544 440 1543T511 1533T585 1511T649 1467T705 1397T740 1293T754 1149Q754 1088 744 1029T712 909T646 806T541 752L825 0H612L334 756H330V0H125ZM330 860Q440 853 488 916T537
1104Q537 1145 535 1175T527 1239T508 1294T477 1335T429 1362T362 1370H330V860Z" />
<glyph unicode="S" glyph-name="S" horiz-adv-x="724" d="M602 1513L600 1307Q512 1372 426 1372Q344 1372 294 1315T244 1174Q244 1080 301 1006L457 836Q536 755 578 700T648 564T676 383Q676 214 577 97T313 -20Q180 -20 88 53V260Q198 180 291 180Q381 180
426 241T471 395Q471 457 447 512T385 612T301 700T209 791T125 891T63 1015T39 1169Q39 1341 129 1453T385 1565Q515 1565 602 1513Z" />
<glyph unicode="T" glyph-name="T" horiz-adv-x="661" d="M-8 1544H670V1366H438V0H233V1366H-8V1544Z" />
<glyph unicode="U" glyph-name="U" horiz-adv-x="956" d="M125 1544H330V412Q330 340 340 291T370 217T415 182T473 172Q514 172 543 183T588 211T614 258T625 317T629 389V1544H834V449Q834 283 814 206Q769 27 589 -10Q539 -20 479 -20Q411 -20 358 -7T267 29T204
89T162 165T139 259T128 363T125 479V1544Z" />
<glyph unicode="V" glyph-name="V" horiz-adv-x="792" d="M14 1544H219L395 383H399L410 479L492 999L586 1544H780L477 0H313L14 1544Z" />
<glyph unicode="W" glyph-name="W" horiz-adv-x="1212" d="M4 1544H205L350 498L358 383H362L424 901L530 1544H690L858 393H862L918 889L1012 1544H1210L940 0H776L659 719L612 1108L610 1147H606L561 731L438 0H270L4 1544Z" />
<glyph unicode="X" glyph-name="X" horiz-adv-x="874" d="M68 1544H270L369 1270Q434 1083 451 987H455L510 1200L618 1544H827L543 784L827 0H618L524 270Q452 477 440 578H436Q434 512 397 399L270 0H49L342 784L68 1544Z" />
<glyph unicode="Y" glyph-name="Y" horiz-adv-x="802" d="M4 1544H225L414 829H418L451 1028L582 1544H801L514 666V0H309V666L4 1544Z" />
<glyph unicode="Z" glyph-name="Z" horiz-adv-x="804" d="M86 1544H768L303 178H743V0H31L500 1366H86V1544Z" />
<glyph unicode="[" glyph-name="bracketleft" horiz-adv-x="614" d="M78 1544H526V1405H254V-72H526V-211H78V1544Z" />
<glyph unicode="\" glyph-name="backslash" horiz-adv-x="512" d="M-221 1700H-59L733 -211H567L-221 1700Z" />
<glyph unicode="]" glyph-name="bracketright" horiz-adv-x="614" d="M88 1544H537V-211H88V-72H360V1405H88V1544Z" />
<glyph unicode="^" glyph-name="asciicircum" horiz-adv-x="1024" d="M461 1544H561L936 690H799L510 1354L225 690H90L461 1544Z" />
<glyph unicode="_" glyph-name="underscore" horiz-adv-x="1024" d="M0 -154H1024V-256H0V-154Z" />
<glyph unicode="`" glyph-name="grave" horiz-adv-x="573" d="M135 1440L272 1528L440 1223L338 1163L135 1440Z" />
<glyph unicode="a" glyph-name="a" horiz-adv-x="778" d="M383 156Q506 156 504 504Q504 514 504 518Q504 686 485 762Q456 879 383 879Q360 879 341 870T309 843T287 805T272 756T262 704T257 648T256 598T255 552T256 518T256 484T255 437T257 387T262 331T271
279T286 230T309 193T341 165T383 156ZM498 0V133H494Q461 56 421 20T303 -16Q253 -16 214 6T150 62T106 147T79 243T66 349T60 446T59 530Q59 578 60 614T66 708T80 808T108 899T153 979T219 1030T309 1051Q433 1051 494 920H498V1034H690V0H498Z" />
<glyph unicode="b" glyph-name="b" horiz-adv-x="778" d="M88 0V1700H281V920H285Q317 986 354 1016Q400 1051 469 1051Q519 1051 559 1030T625 979T669 899T697 808T712 708T718 614T719 530T718 446T713 350T699 244T672 147T629 62T564 7T475 -16Q399 -16 359
20T285 133H281V0H88ZM395 156Q418 156 437 165T469 193T492 231T507 280T516 332T521 388T522 438T523 484T522 518T522 552T523 598T521 648T517 704T508 755T492 804T469 842T437 870T395 879Q272 879 274 532Q274 522 274 518Q274 351 293 275Q322 157 395
156Z" />
<glyph unicode="c" glyph-name="c" horiz-adv-x="569" d="M520 1016V821H516Q486 867 426 870Q392 870 365 856T320 821T290 768T271 708T261 642T257 581T256 526Q256 164 422 164Q451 164 471 173T520 203V25Q451 -16 365 -16Q59 -16 59 508Q59 561 61 605T70
708T91 811T127 903T182 981T261 1031T367 1051Q446 1051 520 1016Z" />
<glyph unicode="d" glyph-name="d" horiz-adv-x="778" d="M498 0V133H494Q461 57 420 21T303 -16Q253 -16 214 6T150 62T106 147T79 243T66 349T60 446T59 530Q59 578 60 614T66 708T80 808T108 899T153 979T219 1030T309 1051Q378 1051 419 1018T494 920H498V1700H690V0H498ZM383
156Q506 156 504 504Q504 514 504 518Q504 686 485 762Q456 879 383 879Q360 879 341 870T309 843T287 805T272 756T262 704T257 648T256 598T255 552T256 518T256 484T255 437T257 387T262 331T271 279T286 230T309 193T341 165T383 156Z" />
<glyph unicode="e" glyph-name="e" horiz-adv-x="739" d="M256 616H485Q485 641 485 656T482 702T476 753T464 800T443 841T412 868T369 879Q336 879 313 860T280 818T263 753T257 691T256 630Q256 620 256 616ZM682 479H256Q256 304 286 231Q316 156 377 156Q413
156 438 174T476 222T493 283T498 348H676Q676 289 666 237T632 138T575 57T490 4T375 -16Q322 -16 279 -3T204 35T148 92T109 165T83 247T68 336T61 424T59 510Q59 563 61 607T70 709T91 812T127 904T183 981T262 1031T369 1051Q682 1051 682 510V479Z" />
<glyph unicode="f" glyph-name="f" horiz-adv-x="509" d="M43 1034H139V1368Q139 1406 140 1434T144 1496T155 1556T174 1607T203 1652T244 1686T300 1708T373 1716Q435 1716 502 1688V1487Q456 1511 422 1511Q396 1511 378 1501T351 1478T338 1442T333 1404T332
1361Q332 1351 332 1346V1034H492V883H332V0H139V883H43V1034Z" />
<glyph unicode="g" glyph-name="g" horiz-adv-x="782" d="M502 512Q502 879 377 879Q347 879 325 861T290 812T270 744T260 669T256 597T256 539Q256 527 256 522Q256 377 267 314Q293 156 383 156Q405 156 423 165T454 191T475 229T490 277T498 328T502 383T503
433T503 478T502 512ZM694 1034V-8Q694 -117 681 -194T643 -319T578 -394T491 -430T379 -440Q237 -440 156 -362T74 -141V-113H260Q257 -176 287 -222T383 -268Q402 -268 417 -264T444 -255T465 -238T480 -219T490 -194T496 -167T499 -137T500 -108T500 -78T500
-49V123H496Q475 57 428 19T311 -16Q260 -16 220 5T154 57T109 136T81 228T67 329T60 424T59 510Q59 723 85 831Q139 1051 307 1051Q378 1051 419 1016T496 911L500 915V1034H694Z" />
<glyph unicode="h" glyph-name="h" horiz-adv-x="794" d="M90 1700H283V915H287Q320 980 369 1014Q421 1051 496 1051Q539 1051 572 1040T628 1012T665 966T689 912T701 847T706 780T707 711V0H514V715Q514 879 399 879Q375 879 356 872T324 852T304 823T291 787T285
746T282 705T283 665Q283 651 283 645V0H90V1700Z" />
<glyph unicode="i" glyph-name="i" horiz-adv-x="368" d="M281 1034V0H88V1034H281ZM186 1219Q133 1219 95 1256T57 1348Q57 1400 95 1437T186 1475Q237 1475 275 1438T313 1348Q313 1294 276 1257T186 1219Z" />
<glyph unicode="j" glyph-name="j" horiz-adv-x="368" d="M281 1034V-424H88V1034H281ZM186 1219Q133 1219 95 1256T57 1348Q57 1400 95 1437T186 1475Q237 1473 275 1435T313 1346Q313 1292 275 1255T186 1219Z" />
<glyph unicode="k" glyph-name="k" horiz-adv-x="808" d="M90 1700H283V575H287L526 1034H741L477 575L776 0H553L287 549H283V0H90V1700Z" />
<glyph unicode="l" glyph-name="l" horiz-adv-x="368" d="M281 1700V0H88V1700H281Z" />
<glyph unicode="m" glyph-name="m" horiz-adv-x="1208" d="M283 1034V907H287Q352 1051 489 1051Q559 1051 609 1013T676 907H680Q746 1051 893 1051Q959 1051 1005 1032T1075 977T1109 899T1120 801V0H928V725Q928 758 925 781T911 829T879 866T823 879Q803 879
787 875T758 866T736 849T721 828T710 803T704 776T701 746T700 716T700 686T700 657V0H508V702Q506 793 492 824Q469 879 397 879Q375 879 358 873T329 858T309 831T296 802T288 765T284 730T282 692T281 657V0H88V1034H283Z" />
<glyph unicode="n" glyph-name="n" horiz-adv-x="794" d="M283 1034V915H287Q320 980 369 1014Q421 1051 496 1051Q538 1051 571 1040T627 1012T664 966T688 912T700 847T706 780T707 711V0H514V715Q514 879 399 879Q375 879 356 872T324 852T304 823T291 787T285
746T282 705T283 665Q283 651 283 645V0H90V1034H283Z" />
<glyph unicode="o" glyph-name="o" horiz-adv-x="768" d="M446 -16T385 -16T275 2T192 50T133 124T94 213T72 314T62 416T59 514Q59 569 61 615T72 718T94 820T133 910T191 984T274 1032T385 1051T495 1033T578 985T637 910T676 820T698 718T708 615T711 514Q711
461 709 416T698 315T676 214T637 125T579 51T496 3ZM361 160T385 160T428 169T460 196T484 235T499 284T508 335T513 390T514 439T515 483T514 514Q514 519 514 547T515 593T513 643T509 698T500 750T484 799T461 837T428 865T385 874T342 865T310 838T286 800T271
751T262 699T257 644T256 593T255 547T256 514Q256 510 256 483T255 439T257 390T261 336T270 284T286 235T309 197T342 169Z" />
<glyph unicode="p" glyph-name="p" horiz-adv-x="778" d="M395 156Q424 156 446 170T481 212T503 270T516 347T521 428T522 516Q522 521 522 550T523 596T521 647T517 702T508 755T492 804T469 842T437 870T395 879Q373 879 355 869T325 838T303 795T289 740T280
684T276 625T274 574T274 530Q274 520 274 516Q274 349 293 273Q322 156 395 156ZM281 1034V901H285Q316 975 358 1013T475 1051Q525 1051 564 1029T628 974T672 889T699 792T712 687T718 590T719 506T718 422T712 328T698 227T670 136T626 56T560 5T469 -16Q398
-16 358 16T285 117H281V-424H88V1034H281Z" />
<glyph unicode="q" glyph-name="q" horiz-adv-x="778" d="M383 156Q506 156 504 502Q504 512 504 516T504 530Q506 879 383 879Q360 879 341 870T309 843T287 805T272 756T262 704T257 648T256 598T255 551T256 516T256 482T255 436T257 386T262 331T271 279T286
230T309 193T341 165T383 156ZM690 1034V-424H498V117H494Q462 48 424 18Q379 -16 309 -16Q259 -16 219 4T153 56T109 135T81 226T66 327T60 421T59 506T60 590T65 686T79 792T106 888T149 973T214 1028T303 1051Q378 1051 420 1014T494 901H498V1034H690Z" />
<glyph unicode="r" glyph-name="r" horiz-adv-x="550" d="M283 1034V907H287Q359 1051 506 1051V860L473 862Q371 862 328 809T285 651V0H90V1034H283Z" />
<glyph unicode="s" glyph-name="s" horiz-adv-x="565" d="M479 1006V823Q451 848 411 863T336 879Q280 879 243 849T205 768Q206 733 224 703T270 649T333 601T402 547T464 485T510 401T528 291Q528 153 448 69T231 -16Q144 -16 63 33V221Q146 156 223 156Q285
156 318 191T352 287Q352 324 334 355T288 412T225 462T156 516T94 578T47 661T29 768Q29 892 106 971T305 1051Q402 1051 479 1006Z" />
<glyph unicode="t" glyph-name="t" horiz-adv-x="452" d="M129 1327H322V1034H424V883H322V0H129V883H25V1034H129V1327Z" />
<glyph unicode="u" glyph-name="u" horiz-adv-x="796" d="M90 1034H283V387Q283 381 283 359T283 328T284 298T287 267T293 240T303 213T318 192T338 175T366 165T401 160T435 164T462 173T483 190T497 209T507 234T513 260T515 290T516 319T516 349T516 377V1034H709V336Q709
252 695 191T648 81T556 9T410 -16Q328 -16 269 3T176 53T122 137T96 244T90 377V1034Z" />
<glyph unicode="v" glyph-name="v" horiz-adv-x="733" d="M27 1034H231L371 252H375L381 313L457 731L520 1034H707L434 0H307L27 1034Z" />
<glyph unicode="w" glyph-name="w" horiz-adv-x="997" d="M-6 1034H197L307 313V293H311L356 614L436 1034H573L690 313V293H694L748 678L815 1034H1004L760 0H629L524 530L504 760H500L455 389L379 0H246L-6 1034Z" />
<glyph unicode="x" glyph-name="x" horiz-adv-x="808" d="M29 1034H254L399 680L449 834L532 1034H733L500 547L782 0H555L453 223Q450 231 440 254T426 288T413 319T401 353T392 385T385 420H381Q378 383 366 338T344 270T311 193L229 0H29L287 547L29 1034Z" />
<glyph unicode="y" glyph-name="y" horiz-adv-x="763" d="M8 1034H223L375 313H379L553 1034H748L326 -424H123L283 84L8 1034Z" />
<glyph unicode="z" glyph-name="z" horiz-adv-x="686" d="M55 1034H657L311 172H639V0H29L387 862H55V1034Z" />
<glyph unicode="{" glyph-name="braceleft" horiz-adv-x="528" d="M4 616V723Q41 727 69 735T126 761T170 811T188 889V1274Q188 1424 258 1484T459 1544H522V1427Q432 1419 395 1381T360 1249V924Q360 815 321 755T168 672V668Q281 645 320 585T360 416V90Q357
-3 394 -41T522 -88V-205H459Q328 -205 258 -145T188 66V451Q187 496 171 528T126 578T69 603T4 616Z" />
<glyph unicode="|" glyph-name="bar" horiz-adv-x="512" d="M184 1610H328V-438H184V1610Z" />
<glyph unicode="}" glyph-name="braceright" horiz-adv-x="528" d="M6 -205V-88Q96 -80 133 -42T168 90V416Q168 525 208 585T360 668V672Q248 695 208 755T168 924V1249Q171 1342 134 1380T6 1427V1544H70Q200 1544 270 1484T340 1274V889Q341 844 357 812T402
762T458 736T524 723V616Q487 612 459 604T403 578T358 529T340 451V66Q340 -84 270 -144T70 -205H6Z" />
<glyph unicode="~" glyph-name="asciitilde" horiz-adv-x="1024" d="M330 678Q400 678 526 606Q534 602 554 592T583 577T609 564T635 552T658 544T681 537T700 535Q751 535 793 585T866 705L936 608Q835 381 698 381Q683 381 663 386T626 397T582 415T543 434T503
455T471 471Q376 522 330 522Q305 522 282 510T244 482T210 437T184 390T160 338L90 436Q112 487 133 524T183 599T250 657T330 678Z" />
</font>
</defs>
</svg>
