<?xml version="1.0" standalone="no"?> <!DOCTYPE svg PUBLIC "-//W3C//DTD SVG 1.0//EN" "http://www.w3.org/TR/2001/REC-SVG-20010904/DTD/svg10.dtd" > <svg xmlns="http://www.w3.org/2000/svg" width="100%" height="100%">
<defs >
<font id="futurastdlight" horiz-adv-x="1083" ><font-face
    font-family="Futura Std Light"
    units-per-em="2048"
    panose-1="2 11 4 2 2 2 4 2 3 3"
    ascent="1690"
    descent="-358"
    alphabetic="0" />
<missing-glyph horiz-adv-x="1024" d="M0 0V1434H1024V0H0ZM512 809L860 1331H164L512 809ZM573 717L922 195V1239L573 717ZM164 102H860L512 625L164 102ZM102 1239V195L451 717L102 1239Z" />
<glyph unicode=" " glyph-name="space" horiz-adv-x="634" />
<glyph unicode="!" glyph-name="exclam" horiz-adv-x="655" d="M293 147T328 147T387 123T412 63Q412 28 388 4T328 -20T269 4T244 63Q244 99 268 123ZM279 293V1544H377V293H279Z" />
<glyph unicode="&quot;" glyph-name="quotedbl" horiz-adv-x="569" d="M119 1544H217L195 1053H139L119 1544ZM352 1544H451L428 1053H373L352 1544Z" />
<glyph unicode="#" glyph-name="numbersign" horiz-adv-x="1269" d="M1098 565V467H840L764 0H670L743 467H467L399 0H301L369 467H121V565H383L430 897H178V995H444L510 1430H612L547 995H825L891 1430H993L926 995H1151V897H909L856 565H1098ZM809 897H530L481
565H760L809 897Z" />
<glyph unicode="$" glyph-name="dollar" horiz-adv-x="1269" d="M711 741V82Q836 113 918 212T1001 438Q1001 473 991 504T967 560T927 608T880 648T824 684T769 713T711 741ZM618 895V1466Q509 1466 433 1378T356 1178Q356 1057 479 973Q513 949 618 895ZM618
78V786Q608 791 588 801Q542 824 519 836T454 872T391 915T339 964T295 1023T269 1091T258 1174Q258 1338 357 1445T618 1565V1780H711V1561Q809 1548 893 1491T1024 1348L948 1286Q906 1358 845 1408T711 1466V852Q729 843 765 825Q803 806 822 796T876 767T929
735T975 701T1018 661T1051 616T1078 562T1093 501T1100 430Q1100 268 986 142T711 -16V-248H618V-20Q458 -16 342 71T170 313L254 352Q301 228 397 150T618 78Z" />
<glyph unicode="%" glyph-name="percent" horiz-adv-x="1359" d="M237 1559T369 1559T590 1473T680 1253Q680 1124 590 1038T369 952T148 1038T57 1253Q57 1386 147 1472ZM369 1473Q277 1473 210 1409T143 1253Q143 1165 210 1102T369 1038T527 1101T594 1253Q594
1344 527 1408T369 1473ZM859 592T991 592T1213 506T1303 287Q1303 158 1212 72T991 -14T771 72T680 287Q680 419 769 505ZM1083 506T991 506T833 442T766 287Q766 198 833 135T991 72T1149 135T1217 287Q1217 378 1150 442ZM1102 1579L1169 1544L252 -35L188 2L1102
1579Z" />
<glyph unicode="&amp;" glyph-name="ampersand" horiz-adv-x="1314" d="M647 1481Q565 1481 508 1416T451 1266Q451 1227 466 1186T497 1118T544 1047T588 981Q608 997 643 1022T701 1064T751 1108T796 1159T824 1217T836 1288Q836 1367 782 1424T647 1481ZM1212
0L1018 256Q861 124 723 47T449 -31Q279 -31 162 88T45 377Q45 580 251 755Q329 821 514 938Q507 948 483 980T450 1026T421 1070T393 1120T373 1167T357 1221T352 1276Q352 1398 441 1485T653 1573Q772 1573 853 1489T934 1286Q934 1235 917 1188T877 1107T810
1033T734 968T645 905L1026 385L1223 600L1298 559L1083 313L1319 0H1212ZM571 860L473 795Q430 767 408 752T344 707T280 656T228 601T182 537T155 467T143 387Q143 253 229 157T449 61Q513 61 581 84T722 156T842 238T961 334L571 860Z" />
<glyph unicode="&apos;" glyph-name="quotesingle" horiz-adv-x="454" d="M178 1544H276L254 1053H199L178 1544Z" />
<glyph unicode="(" glyph-name="parenleft" horiz-adv-x="491" d="M281 1597L356 1544Q227 1088 227 604Q227 154 356 -311L281 -362Q208 -177 172 92T135 604Q135 857 170 1132T281 1597Z" />
<glyph unicode=")" glyph-name="parenright" horiz-adv-x="491" d="M135 1544L211 1597Q285 1408 320 1133T356 604Q356 363 320 93T211 -362L135 -311Q264 154 264 604Q264 1088 135 1544Z" />
<glyph unicode="*" glyph-name="asterisk" horiz-adv-x="1267" d="M592 1237L584 1544H684L676 1237L967 1339L997 1243L702 1155L891 911L809 852L635 1106L459 852L379 909L565 1155L270 1243L301 1339L592 1237Z" />
<glyph unicode="+" glyph-name="plus" horiz-adv-x="1269" d="M586 573V1049H684V573H1159V475H684V0H586V475H111V573H586Z" />
<glyph unicode="," glyph-name="comma" horiz-adv-x="634" d="M313 152L406 123L236 -340L174 -317L313 152Z" />
<glyph unicode="-" glyph-name="hyphen" horiz-adv-x="389" d="M0 700H389V608H0V700Z" />
<glyph unicode="." glyph-name="period" horiz-adv-x="634" d="M317 147Q353 147 377 123T401 63Q401 28 377 4T317 -20Q282 -20 258 4T233 63Q233 99 257 123T317 147Z" />
<glyph unicode="/" glyph-name="slash" horiz-adv-x="1310" d="M1167 1690L1239 1653L147 -291L72 -252L1167 1690Z" />
<glyph unicode="0" glyph-name="zero" horiz-adv-x="1269" d="M525 1565T635 1565T839 1515T998 1383T1108 1198T1175 988T1196 782Q1196 683 1176 576T1111 362T1003 171T844 33T635 -20T427 33T268 170T159 362T94 576T74 782Q74 882 95 988T161 1197T271 1382T430
1514ZM540 72T635 72T809 119T941 242T1029 412T1082 601T1098 782Q1098 845 1087 918T1052 1069T990 1219T902 1348T784 1439T635 1473T487 1439T368 1348T280 1220T218 1070T184 918T172 782Q172 695 188 602T240 413T329 242T460 120Z" />
<glyph unicode="1" glyph-name="one" horiz-adv-x="1269" d="M631 1452H387L434 1544H729V0H631V1452Z" />
<glyph unicode="2" glyph-name="two" horiz-adv-x="1269" d="M360 92H1094V0H141L717 633Q843 772 892 841Q1001 994 1001 1118Q1001 1268 894 1370T637 1473Q478 1473 373 1369T272 1108H174Q177 1201 197 1270T270 1401Q337 1476 437 1520T637 1565Q830 1565
965 1435T1100 1112Q1100 1052 1081 990T1038 884T967 776T893 684T809 592L360 92Z" />
<glyph unicode="3" glyph-name="three" horiz-adv-x="1269" d="M618 758V850Q758 853 852 942T946 1171Q946 1296 856 1384T641 1473Q509 1473 430 1394T342 1180H244Q256 1358 361 1461T643 1565Q810 1565 927 1450T1044 1167Q1044 1049 982 953T813 809Q929
765 998 661T1067 434Q1067 242 937 111T614 -20Q436 -20 311 92T186 379H285Q297 243 385 158T612 72Q758 72 863 178T969 428Q969 575 868 666T618 758Z" />
<glyph unicode="4" glyph-name="four" horiz-adv-x="1269" d="M956 385H1174V293H956V0H858V293H25V305L944 1597H956V385ZM858 385V1298H846L205 397V385H858Z" />
<glyph unicode="5" glyph-name="five" horiz-adv-x="1269" d="M1087 1452H571L442 1034Q493 1051 559 1051Q668 1051 765 1010T932 898T1042 730T1083 524Q1083 369 1009 244T808 50T526 -20Q386 -20 265 48T70 236L160 272Q220 181 320 127T528 72Q722 72 853
202T985 526Q985 708 853 833T535 958Q416 958 299 889L500 1544H1087V1452Z" />
<glyph unicode="6" glyph-name="six" horiz-adv-x="1269" d="M696 1565L776 1505L436 1024L440 1020Q537 1061 645 1061Q754 1061 854 1018T1026 901T1141 727T1184 518Q1184 418 1143 322T1030 147Q875 -20 633 -20Q485 -20 360 50T160 245T86 518Q86 700 199
858L696 1565ZM635 72Q820 72 952 203T1085 520Q1085 641 1025 744T860 908T635 969Q513 969 409 909T245 745T184 520Q184 334 316 203T635 72Z" />
<glyph unicode="7" glyph-name="seven" horiz-adv-x="1269" d="M1081 1452H143V1544H1264L158 -16L82 43L1081 1452Z" />
<glyph unicode="8" glyph-name="eight" horiz-adv-x="1269" d="M635 756Q491 756 388 656T285 414T388 172T635 72Q777 72 881 172T985 414Q985 555 881 655T635 756ZM755 -20T635 -20T412 34T248 185T186 403Q186 684 438 805Q339 853 280 950T221 1157Q221 1332
340 1448T635 1565T930 1449T1049 1157Q1049 1047 990 950T831 805Q1083 684 1083 403Q1083 283 1022 186T858 34ZM635 1473Q506 1473 413 1381T319 1159T411 939T635 848Q764 848 857 939T950 1159T857 1380T635 1473Z" />
<glyph unicode="9" glyph-name="nine" horiz-adv-x="1269" d="M573 -16L494 43L836 524L831 528Q728 487 625 487Q516 487 417 530T245 646T129 819T86 1028Q86 1138 130 1238T250 1410T426 1523T637 1565Q789 1565 914 1493T1112 1296T1184 1018Q1184 849 1071
688L573 -16ZM637 1473Q452 1473 318 1342T184 1026Q184 905 245 802T411 640T637 580Q822 580 953 711T1085 1026Q1085 1148 1025 1251T861 1413T637 1473Z" />
<glyph unicode=":" glyph-name="colon" horiz-adv-x="634" d="M317 147Q353 147 377 123T401 63Q401 28 377 4T317 -20Q282 -20 258 4T233 63Q233 99 257 123T317 147ZM317 967Q353 967 377 943T401 883T377 824T317 799Q282 799 258 823T233 883T257 942T317 967Z" />
<glyph unicode=";" glyph-name="semicolon" horiz-adv-x="634" d="M313 152L406 123L236 -340L174 -317L313 152ZM295 967T330 967T389 943T414 883T390 824T330 799T271 823T246 883T270 942Z" />
<glyph unicode="&lt;" glyph-name="less" horiz-adv-x="1269" d="M217 524L1159 84V-10L111 471V580L1159 1036V942L217 524Z" />
<glyph unicode="=" glyph-name="equal" horiz-adv-x="1269" d="M1159 748V649H111V748H1159ZM1159 399V301H111V399H1159Z" />
<glyph unicode="&gt;" glyph-name="greater" horiz-adv-x="1269" d="M111 84L1053 524L111 942V1036L1159 580V471L111 -10V84Z" />
<glyph unicode="?" glyph-name="question" horiz-adv-x="1005" d="M725 621H823Q829 479 740 385T504 291Q369 291 275 378T180 596Q180 728 257 800T473 909Q520 921 544 928T606 949T663 975T707 1009T743 1055T763 1114T772 1192Q772 1310 696 1391T500 1473Q385
1473 308 1398T233 1212Q233 1152 244 1104H150Q135 1176 135 1235Q135 1379 244 1472T502 1565Q667 1565 768 1462T870 1196Q870 1112 847 1050T776 945T671 877T530 829Q480 817 453 809T388 782T329 743T294 685T279 602Q279 507 343 445T508 383T667 453T725
621ZM463 147T498 147T557 123T582 63Q582 28 558 4T498 -20T439 4T414 63Q414 99 438 123Z" />
<glyph unicode="@" glyph-name="at" horiz-adv-x="1638" d="M690 395Q784 398 867 473T979 639L1075 940Q1084 968 1073 1005T1036 1077T965 1135T866 1159Q789 1159 715 1105T589 969T505 795T473 623Q473 528 531 460T690 395ZM1128 1108L1159 1204H1249L1038
541Q1029 513 1026 498T1021 460T1028 425T1055 404T1108 395Q1190 395 1275 477T1415 680T1470 911Q1470 1035 1417 1143T1278 1323T1081 1437T854 1479Q715 1479 588 1420T369 1264T223 1036T168 764Q168 625 224 496T374 273T595 123T858 66Q1034 66 1184 138T1417
344H1532Q1444 178 1266 79T858 -20Q697 -20 553 43T305 213T142 468T82 778Q82 906 121 1026T233 1243T399 1413T610 1525T850 1565Q1045 1565 1206 1480T1462 1243T1556 903Q1556 784 1512 672T1400 482T1246 356T1079 309Q1024 309 983 335T926 410Q808 309
659 309Q531 309 459 393T387 610Q387 695 409 784T474 955T577 1102T715 1206T883 1245Q956 1245 1021 1209T1128 1108Z" />
<glyph unicode="A" glyph-name="A" horiz-adv-x="1312" d="M995 508H317L111 0H10L657 1595L1303 0H1202L995 508ZM958 600L657 1346L354 600H958Z" />
<glyph unicode="B" glyph-name="B" horiz-adv-x="1157" d="M264 752V92H500Q506 92 518 92Q587 92 624 94T718 110T815 152Q887 200 927 270T967 426Q967 514 925 589T807 702Q763 724 701 736T593 750T481 752H264ZM561 0H166V1544H475Q581 1544 656 1527T795
1454Q924 1341 924 1135Q924 921 745 819Q889 790 977 684T1065 430Q1065 233 922 111Q846 46 761 23T561 0ZM264 1452V844H434Q439 844 467 844T502 844T532 844T564 847T593 851T624 858T652 868T683 882T711 901Q774 947 799 1006T825 1149Q825 1228 793 1295T698
1403Q662 1426 612 1437T529 1450T434 1452H264Z" />
<glyph unicode="C" glyph-name="C" horiz-adv-x="1513" d="M1393 1364V1229Q1304 1338 1161 1405T874 1473Q686 1473 524 1375T267 1113T172 762Q172 629 226 506T379 285Q480 189 611 131T874 72Q1011 72 1159 138T1393 307V172Q1161 -20 879 -20Q721 -20 573
43T315 212T140 464T74 770Q74 931 139 1078T312 1332T570 1502T881 1565Q1020 1565 1154 1512T1393 1364Z" />
<glyph unicode="D" glyph-name="D" horiz-adv-x="1335" d="M166 0V1544H444Q628 1544 763 1503T1018 1350Q1138 1237 1201 1087T1264 770Q1264 609 1203 463T1026 205Q905 89 768 45T444 0H166ZM264 92H442Q605 92 730 133T961 279Q1059 377 1112 504T1165 770Q1165
919 1108 1052T942 1284Q838 1378 718 1415T442 1452H264V92Z" />
<glyph unicode="E" glyph-name="E" horiz-adv-x="1038" d="M903 1452H264V891H887V799H264V92H903V0H166V1544H903V1452Z" />
<glyph unicode="F" glyph-name="F" horiz-adv-x="909" d="M788 1452H264V891H774V799H264V0H166V1544H788V1452Z" />
<glyph unicode="G" glyph-name="G" horiz-adv-x="1687" d="M963 743H1614Q1617 582 1583 458T1452 229Q1343 111 1187 46T866 -20Q656 -20 473 87T182 375T74 766Q74 929 138 1077T310 1332T567 1502T879 1565Q1083 1565 1252 1470T1548 1204L1468 1141Q1363 1298
1210 1385T872 1473Q734 1473 605 1415T381 1262T229 1038T172 772Q172 584 266 423T521 167T872 72Q993 72 1111 117T1327 242Q1424 323 1467 421T1516 651H963V743Z" />
<glyph unicode="H" glyph-name="H" horiz-adv-x="1466" d="M264 889H1202V1544H1300V0H1202V797H264V0H166V1544H264V889Z" />
<glyph unicode="I" glyph-name="I" horiz-adv-x="430" d="M264 1544V0H166V1544H264Z" />
<glyph unicode="J" glyph-name="J" horiz-adv-x="446" d="M182 1544H281V29Q281 -33 275 -82T250 -178T202 -256T123 -305T8 -324Q-75 -324 -143 -278T-248 -156L-174 -100Q-147 -157 -96 -194T16 -231Q60 -231 92 -215T141 -174T167 -112T179 -44T182 29V1544Z" />
<glyph unicode="K" glyph-name="K" horiz-adv-x="1165" d="M264 823L997 1544H1128L373 801L1176 0H1047L305 737L264 696V0H166V1544H264V823Z" />
<glyph unicode="L" glyph-name="L" horiz-adv-x="669" d="M264 1544V92H657V0H166V1544H264Z" />
<glyph unicode="M" glyph-name="M" horiz-adv-x="1837" d="M1724 0L1460 1278H1456L918 -51L381 1278H377L113 0H18L350 1595L918 190L1487 1595L1819 0H1724Z" />
<glyph unicode="N" glyph-name="N" horiz-adv-x="1726" d="M1561 1544V-51L264 1327V0H166V1565L1462 197V1544H1561Z" />
<glyph unicode="O" glyph-name="O" horiz-adv-x="1748" d="M874 1565Q1034 1565 1182 1502T1438 1332T1610 1079T1675 772T1611 466T1438 213T1182 43T874 -20T567 43T311 212T139 465T74 772Q74 985 182 1168T475 1458T874 1565ZM874 1473Q732 1473 602 1417T378
1266T228 1042T172 772Q172 585 266 424T523 167T874 72Q1062 72 1224 167T1482 424T1577 772Q1577 912 1521 1041T1370 1265T1145 1416T874 1473Z" />
<glyph unicode="P" glyph-name="P" horiz-adv-x="966" d="M264 733V0H166V1544H438Q549 1544 628 1527T772 1454Q841 1396 876 1313T911 1137Q911 1050 878 967T782 831Q668 733 438 733H264ZM264 825H442Q528 825 593 842T713 909Q813 1002 813 1141Q813 1215
783 1282T696 1391Q660 1419 610 1433T523 1449T426 1452H264V825Z" />
<glyph unicode="Q" glyph-name="Q" horiz-adv-x="1748" d="M1065 633L1378 293Q1577 508 1577 760Q1577 903 1523 1034T1376 1262T1153 1415T877 1473Q736 1473 606 1417T380 1266T229 1042T172 772Q172 630 228 500T380 277T606 128T881 72Q994 72 1105 115T1311
233L926 633H1065ZM1520 0L1380 164Q1275 77 1142 29T874 -20Q712 -20 564 42T309 210T138 463T74 772Q74 933 138 1080T310 1333T566 1502T877 1565Q1036 1565 1183 1502T1438 1334T1610 1083T1675 778Q1675 477 1450 219L1653 0H1520Z" />
<glyph unicode="R" glyph-name="R" horiz-adv-x="999" d="M424 731L930 0H817L313 731H264V0H166V1544H358Q438 1544 485 1541T597 1520T711 1466Q866 1357 866 1135Q866 939 744 834T424 731ZM264 823H389Q480 823 543 836T659 895Q713 938 740 1002T768 1139Q768
1229 726 1305T604 1417Q589 1424 571 1429T540 1439T504 1445T471 1449T433 1451T399 1452T362 1452T328 1452H264V823Z" />
<glyph unicode="S" glyph-name="S" horiz-adv-x="1114" d="M950 1348L881 1290Q766 1473 567 1473Q444 1473 360 1387T276 1178Q276 1144 286 1114T308 1061T347 1015T391 977T446 943T499 916T555 889L850 735Q939 679 982 605T1026 428Q1026 335 986 251T879
108T724 15T543 -20Q384 -20 264 70T88 311L174 350Q226 220 319 146T547 72Q701 72 814 178T928 436Q928 483 910 524T866 593T798 651T724 696T643 737Q625 746 616 750L338 897Q178 997 178 1174Q178 1346 289 1455T573 1565Q690 1565 792 1506T950 1348Z" />
<glyph unicode="T" glyph-name="T" horiz-adv-x="921" d="M510 1452V0H412V1452H12V1544H909V1452H510Z" />
<glyph unicode="U" glyph-name="U" horiz-adv-x="1351" d="M1102 610V1544H1200V582Q1200 504 1198 464T1187 364T1156 255T1096 160Q1019 73 908 27T676 -20T444 26T256 160Q219 206 197 254T165 363T154 464T152 582V1544H250V610Q250 540 251 502T260 406T284
303T330 221Q384 151 482 112T676 72T869 111T1022 221Q1051 258 1068 302T1092 405T1100 502T1102 610Z" />
<glyph unicode="V" glyph-name="V" horiz-adv-x="1136" d="M109 1544L567 225H571L1028 1544H1126L565 -51L10 1544H109Z" />
<glyph unicode="W" glyph-name="W" horiz-adv-x="2263" d="M123 1544L557 217L1135 1622L1712 217L2140 1544H2238L1718 -51L1128 1376L541 -51L25 1544H123Z" />
<glyph unicode="X" glyph-name="X" horiz-adv-x="1011" d="M446 788L41 1544H150L504 881L858 1544H967L563 788L987 0H881L504 698L131 0H25L446 788Z" />
<glyph unicode="Y" glyph-name="Y" horiz-adv-x="1144" d="M522 659L8 1544H117L571 762L1026 1544H1135L621 659V0H522V659Z" />
<glyph unicode="Z" glyph-name="Z" horiz-adv-x="1163" d="M197 92H1112V0H25L967 1452H115V1544H1139L197 92Z" />
<glyph unicode="[" glyph-name="bracketleft" horiz-adv-x="614" d="M231 1440V-311H481V-416H133V1544H481V1440H231Z" />
<glyph unicode="\" glyph-name="backslash" horiz-adv-x="1310" d="M72 1653L143 1690L1239 39L1163 0L72 1653Z" />
<glyph unicode="]" glyph-name="bracketright" horiz-adv-x="614" d="M383 -311V1440H133V1544H481V-416H133V-311H383Z" />
<glyph unicode="^" glyph-name="asciicircum" horiz-adv-x="1269" d="M207 616H111L582 1544H688L1159 616H1065L635 1452L207 616Z" />
<glyph unicode="_" glyph-name="underscore" horiz-adv-x="1024" d="M1024 -256H0V-154H1024V-256Z" />
<glyph unicode="`" glyph-name="grave" horiz-adv-x="641" d="M154 1423L279 1462L485 1161L408 1126L154 1423Z" />
<glyph unicode="a" glyph-name="a" horiz-adv-x="1146" d="M524 881Q419 881 334 823T204 674T158 479Q158 310 261 188T530 66Q704 66 803 188T903 489Q903 657 798 769T524 881ZM989 946V0H897V170H893Q842 82 742 31T532 -20Q393 -20 286 47T122 228T66 479Q66
691 192 829T528 967Q639 967 736 919T893 782H897V946H989Z" />
<glyph unicode="b" glyph-name="b" horiz-adv-x="1146" d="M616 66Q728 66 814 124T945 276T989 479Q989 583 944 674T813 823T621 881Q446 881 345 767T244 477Q244 305 345 186T616 66ZM158 0V1690H250V782H254Q313 870 410 918T618 967Q756 967 862 903T1025
728T1081 479T1025 228T862 48T614 -20Q506 -20 406 31T254 170H250V0H158Z" />
<glyph unicode="c" glyph-name="c" horiz-adv-x="976" d="M883 850V727Q742 881 549 881Q440 881 350 825T209 675T158 475T208 275T348 124T547 66Q647 66 738 111T895 236V111Q745 -20 551 -20Q413 -20 302 46T128 225T66 475Q66 682 205 824T553 967Q744 967 883 850Z" />
<glyph unicode="d" glyph-name="d" horiz-adv-x="1146" d="M530 66Q704 66 803 188T903 489Q903 657 798 769T524 881Q419 881 334 823T204 674T158 479Q158 310 261 188T530 66ZM897 0V170H893Q842 82 742 31T532 -20Q393 -20 286 47T122 228T66 479Q66 691 192
829T528 967Q639 967 736 919T893 782H897V1690H989V0H897Z" />
<glyph unicode="e" glyph-name="e" horiz-adv-x="1044" d="M979 465H158Q154 287 262 177T537 66Q644 66 731 124T870 281L948 236Q883 113 774 47T524 -20Q422 -20 335 19T190 127T99 285T66 475Q66 607 122 719T284 899T524 967Q663 967 768 898T927 716T979
465ZM158 551H887Q869 687 769 784T526 881T277 784T158 551Z" />
<glyph unicode="f" glyph-name="f" horiz-adv-x="491" d="M250 860V0H158V860H53V946H158V1370Q158 1536 195 1602Q227 1657 283 1686T406 1716Q451 1716 487 1702V1618Q479 1619 464 1622T437 1628T412 1630Q379 1630 353 1620T310 1596T281 1557T263 1512T254
1458T251 1405T250 1352V946H487V860H250Z" />
<glyph unicode="g" glyph-name="g" horiz-adv-x="1161" d="M539 881Q434 881 349 823T218 674T172 479Q172 369 216 276T347 125T545 66Q661 66 747 125T876 278T918 489Q918 657 813 769T539 881ZM1004 946V45Q1004 -90 987 -180T909 -356Q844 -445 746 -492T532
-539Q407 -539 305 -493T138 -353T66 -133H158Q165 -277 271 -365T524 -453Q730 -453 827 -311Q878 -237 894 -152T911 47V164H907Q844 79 745 30T539 -20Q405 -20 299 49T137 230T80 475Q80 611 139 723T307 901T551 967Q770 967 907 782H911V946H1004Z" />
<glyph unicode="h" glyph-name="h" horiz-adv-x="1003" d="M158 1690H250V799H254Q296 878 369 922T535 967Q708 967 777 867T846 571V0H754V571Q754 629 751 669T734 753T696 821T629 864T526 881Q458 881 407 856T326 791T279 695T256 585T250 467V0H158V1690Z" />
<glyph unicode="i" glyph-name="i" horiz-adv-x="479" d="M285 946V0H193V946H285ZM205 1346T240 1346T299 1321T324 1262Q324 1226 300 1202T240 1178T181 1202T156 1262Q156 1296 180 1321Z" />
<glyph unicode="j" glyph-name="j" horiz-adv-x="479" d="M285 946V-553H193V946H285ZM205 1346T240 1346T299 1321T324 1262Q324 1226 300 1202T240 1178T181 1202T156 1262Q156 1296 180 1321Z" />
<glyph unicode="k" glyph-name="k" horiz-adv-x="874" d="M250 1690V545L639 946H758L360 537L891 0H770L301 473L250 420V0H158V1690H250Z" />
<glyph unicode="l" glyph-name="l" horiz-adv-x="407" d="M250 1690V0H158V1690H250Z" />
<glyph unicode="m" glyph-name="m" horiz-adv-x="1484" d="M250 946V827H254Q286 892 350 929T492 967Q582 967 651 922T758 795Q796 878 869 922T1034 967Q1105 967 1158 948T1243 896T1294 815T1320 713T1327 594V0H1235V606Q1235 655 1232 691T1216 765T1182
827T1122 866T1032 881Q962 881 912 853T836 774T799 668T788 545V0H696V584Q696 634 692 672T675 751T640 819T578 863T485 881Q428 881 385 858T317 799T276 713T255 617T250 520V0H158V946H250Z" />
<glyph unicode="n" glyph-name="n" horiz-adv-x="1003" d="M250 946V799H254Q296 878 369 922T535 967Q708 967 777 867T846 571V0H754V571Q754 629 751 669T734 753T696 821T629 864T526 881Q458 881 407 856T326 791T279 695T256 585T250 467V0H158V946H250Z" />
<glyph unicode="o" glyph-name="o" horiz-adv-x="1120" d="M557 967Q767 967 911 825T1055 473Q1055 264 911 122T557 -20Q424 -20 311 46T132 226T66 471Q66 605 131 719T309 900T557 967ZM551 881Q385 881 272 760T158 471Q158 364 209 272T351 123T551 66Q725
66 844 183T963 471Q963 646 845 763T551 881Z" />
<glyph unicode="p" glyph-name="p" horiz-adv-x="1146" d="M616 881Q500 881 414 821T286 665T244 453Q244 284 348 175T621 66Q782 66 885 183T989 463Q989 573 945 667T815 821T616 881ZM250 946V776H254Q305 864 405 915T614 967Q755 967 862 899T1025 718T1081
465Q1081 253 955 117T618 -20Q506 -20 409 27T254 164H250V-553H158V946H250Z" />
<glyph unicode="q" glyph-name="q" horiz-adv-x="1146" d="M530 881Q414 881 328 821T200 665T158 453Q158 284 262 175T535 66Q696 66 799 183T903 463Q903 573 859 667T729 821T530 881ZM989 946V-553H897V164H893Q836 75 738 28T528 -20Q319 -20 193 116T66
463Q66 603 121 716T284 898T532 967Q640 967 741 916T893 776H897V946H989Z" />
<glyph unicode="r" glyph-name="r" horiz-adv-x="569" d="M250 946V823H254Q316 967 459 967Q505 967 559 944L510 862Q474 881 444 881Q403 881 372 867T320 833T286 777T265 715T254 641T250 572T250 505Q250 490 250 483V0H158V946H250Z" />
<glyph unicode="s" glyph-name="s" horiz-adv-x="768" d="M635 815L555 774Q532 824 488 852T389 881Q327 881 277 837T227 733Q227 687 252 655T318 602T408 565T507 527T596 476T662 395T688 274Q688 145 600 63T383 -20Q264 -20 175 47T57 229L147 258Q175
169 234 118T383 66Q472 66 534 128T596 279Q596 313 585 340T559 385T517 419T468 444T412 465Q369 481 346 490T284 518T224 554T179 597T146 655T135 727Q135 832 211 899T393 967Q466 967 535 924T635 815Z" />
<glyph unicode="t" glyph-name="t" horiz-adv-x="428" d="M260 860V0H168V860H63V946H168V1284H260V946H426V860H260Z" />
<glyph unicode="u" glyph-name="u" horiz-adv-x="966" d="M731 946H823V379Q823 327 822 304T817 239T800 166T766 106Q718 44 643 12T483 -20T324 12T201 106Q173 143 160 195T145 279T143 379V946H236V412Q236 348 239 305T257 212T298 134T370 86T483 66T596
85T669 134T709 212T727 304T731 412V946Z" />
<glyph unicode="v" glyph-name="v" horiz-adv-x="886" d="M104 946L446 166L782 946H877L444 -51L10 946H104Z" />
<glyph unicode="w" glyph-name="w" horiz-adv-x="1540" d="M104 946L438 170L772 997L1108 170L1436 946H1530L1102 -51L768 766L436 -51L10 946H104Z" />
<glyph unicode="x" glyph-name="x" horiz-adv-x="907" d="M393 500L41 946H152L453 563L756 946H866L514 500L899 0H791L453 434L117 0H8L393 500Z" />
<glyph unicode="y" glyph-name="y" horiz-adv-x="942" d="M440 -16L-14 946H82L485 90L848 946H942L307 -553H213L440 -16Z" />
<glyph unicode="z" glyph-name="z" horiz-adv-x="983" d="M201 86H969V0H6L780 860H131V946H973L201 86Z" />
<glyph unicode="{" glyph-name="braceleft" horiz-adv-x="614" d="M84 522V612Q164 668 198 716T233 848V1208Q233 1389 296 1464T530 1544V1450Q499 1450 475 1447T422 1434T376 1407T345 1359T332 1286V905Q332 805 314 741T267 642T182 571V561Q263 510 297
439T332 217V-162Q332 -214 349 -248T398 -299T460 -320T530 -326V-416Q359 -410 296 -336T233 -82V279Q233 362 198 414T84 522Z" />
<glyph unicode="|" glyph-name="bar" horiz-adv-x="655" d="M279 -438V1610H377V-438H279Z" />
<glyph unicode="}" glyph-name="braceright" horiz-adv-x="614" d="M530 612V522Q452 466 417 414T381 279V-82Q381 -261 318 -335T84 -416V-326Q115 -326 140 -323T193 -310T239 -283T270 -235T283 -162V217Q283 321 301 387T348 490T432 561V571Q378 608 349
642T301 740T283 905V1286Q283 1328 271 1359T240 1407T193 1434T140 1447T84 1450V1544Q255 1540 318 1465T381 1208V848Q381 765 415 717T530 612Z" />
<glyph unicode="~" glyph-name="asciitilde" horiz-adv-x="1269" d="M412 643Q491 643 651 569Q671 560 709 542T769 514T816 496T862 487Q926 487 972 530T1061 651L1159 604Q1096 504 1025 443T860 381Q825 381 784 394T714 420T637 459Q586 485 559 498T489
524T412 537Q349 537 303 498T207 385L111 432Q112 433 137 465T168 503T198 536T234 572T270 598T314 623T359 636T412 643Z" />
</font>
</defs>
</svg>
